<?xml version="1.0" encoding="UTF-8" standalone="no"?>
<!-- Created with Inkscape (http://www.inkscape.org/) -->

<svg
   xmlns:dc="http://purl.org/dc/elements/1.1/"
   xmlns:cc="http://creativecommons.org/ns#"
   xmlns:rdf="http://www.w3.org/1999/02/22-rdf-syntax-ns#"
   xmlns:svg="http://www.w3.org/2000/svg"
   xmlns="http://www.w3.org/2000/svg"
   xmlns:sodipodi="http://sodipodi.sourceforge.net/DTD/sodipodi-0.dtd"
   xmlns:inkscape="http://www.inkscape.org/namespaces/inkscape"
   width="2430"
   height="990"
   id="svg2"
   version="1.1"
   inkscape:version="0.48.3.1 r9886"
   sodipodi:docname="pieces_only.svg">
  <defs
     id="defs4" />
  <sodipodi:namedview
     id="base"
     pagecolor="#ffffff"
     bordercolor="#666666"
     borderopacity="1.0"
     inkscape:pageopacity="0.0"
     inkscape:pageshadow="2"
     inkscape:zoom="0.5"
     inkscape:cx="1379.2566"
     inkscape:cy="319.33186"
     inkscape:document-units="in"
     inkscape:current-layer="layer1"
     showgrid="false"
     units="in"
     inkscape:window-width="1920"
     inkscape:window-height="1056"
     inkscape:window-x="0"
     inkscape:window-y="24"
     inkscape:window-maximized="1"
     showguides="true"
     inkscape:guide-bbox="true"
     inkscape:snap-grids="true"
     inkscape:snap-to-guides="true"
     inkscape:object-nodes="true"
     inkscape:snap-smooth-nodes="true"
     inkscape:snap-global="true">
    <inkscape:grid
       type="xygrid"
       id="grid2985"
       empspacing="4"
       visible="true"
       enabled="true"
       snapvisiblegridlinesonly="true"
       units="in"
       spacingx="0.125in"
       spacingy="0.125in"
       color="#0000ff"
       opacity="0.0627451"
       empcolor="#0000ff"
       empopacity="0"
       dotted="false" />
    <inkscape:grid
       type="xygrid"
       id="grid2987"
       empspacing="1"
       visible="true"
       enabled="false"
       snapvisiblegridlinesonly="true"
       units="in"
       color="#ff0000"
       opacity="0.0627451"
       empcolor="#ff0000"
       empopacity="0.1254902"
       spacingx="0.0025in"
       spacingy="0.0025in"
       dotted="true" />
    <inkscape:grid
       type="xygrid"
       id="grid2989"
       empspacing="1"
       visible="true"
       enabled="false"
       snapvisiblegridlinesonly="true"
       color="#008000"
       opacity="0.18823529"
       units="in"
       spacingx="0.01in"
       spacingy="0.01in"
       empcolor="#008000"
       empopacity="0.18823529" />
    <inkscape:grid
       type="xygrid"
       id="grid3890"
       empspacing="1"
       visible="true"
       enabled="true"
       snapvisiblegridlinesonly="true"
       units="in"
       spacingx="0.0625in"
       spacingy="0.0625in"
       color="#000000"
       opacity="0.1254902"
       empcolor="#000000"
       empopacity="0.1254902"
       dotted="true" />
  </sodipodi:namedview>
  <metadata
     id="metadata7">
    <rdf:RDF>
      <cc:Work
         rdf:about="">
        <dc:format>image/svg+xml</dc:format>
        <dc:type
           rdf:resource="http://purl.org/dc/dcmitype/StillImage" />
        <dc:title></dc:title>
      </cc:Work>
    </rdf:RDF>
  </metadata>
  <g
     inkscape:label="Layer 1"
     inkscape:groupmode="layer"
     id="layer1"
     transform="translate(0,-62.35975)"
     style="display:inline">
    <path
       style="fill:none;stroke:#000000;stroke-width:2.5;stroke-linecap:butt;stroke-linejoin:round;stroke-miterlimit:4;stroke-opacity:1;stroke-dasharray:none"
       d="m 33.75,1012.9848 0,-5.625 c 0,-5.625 33.75,-11.25002 33.75,-11.25002 0,0 -22.5,-11.25 -22.5,-33.75 0,-39.375 67.5,-45 67.5,-90.00005 5.625,0 11.25,-5.625 16.875,-11.25 16.875,-56.25 22.5,-101.25 16.875,-157.5 -28.125,-5.625 -33.75,-5.625 -33.75,-11.25 l 0,-5.625 c 0,-5.625 35.37467,-12.69993 56.25,-16.875 -101.25,-73.125 -33.75,-151.875 28.125,-151.875 61.875,0 129.375,78.75 28.125,151.875 23.16175,4.63235 56.25,11.25 56.25,16.875 l 0,5.625 c 0,5.625 -5.625,5.625 -33.75,11.25 -5.625,56.25 0,101.25 16.875,157.5 5.625,5.625 11.25,11.25 16.875,11.25 0,45.00005 67.5,50.62505 67.5,90.00005 0,22.5 -22.5,33.75 -22.5,33.75 0,0 33.75,5.62502 33.75,11.25002 l 0,5.625 c 0,5.625 0,5.625 -5.625,5.625 l -315,0 c -5.625,0 -5.625,0 -5.625,-5.625 z"
       id="path3120"
       inkscape:connector-curvature="0"
       sodipodi:nodetypes="cccccccsscscsscccccccccc" />
    <path
       id="path4045-1-1"
       style="fill:none;stroke:#000000;stroke-width:2.5;stroke-linecap:butt;stroke-linejoin:round;stroke-miterlimit:4;stroke-opacity:1;stroke-dasharray:none"
       d="m 679.5,495.48473 0,61.875 c 0,5.625 0,5.625 -5.625,5.625 -5.625,0 -5.625,0 -5.625,5.625 -5.625,0 -11.25,0 -11.25,5.625 l 0,16.875 c 0,0 -5.625,0 -5.625,5.625 0,84.37495 0,163.12495 16.875,247.49995 0,0 11.25,0 11.25,5.625 0,5.625 -5.625,5.62505 -5.625,11.25 5.625,5.625 11.25,5.625 11.25,5.625 0,50.625 50.625,56.25 50.625,90 0,16.8751 -16.875,28.1251 -16.875,28.1251 0,0 28.125,11.25 28.125,16.87502 l 0,11.25 c 0,5.625 0,5.625 -5.625,5.625 l -360,0 c -5.625,0 -5.625,0 -5.625,-5.625 l 0,-11.25 c 0,-5.62502 28.125,-16.87502 28.125,-16.87502 0,0 -16.875,-11.25 -16.875,-28.125 0,-33.75 50.625,-39.375 50.625,-90.00005 0,0 5.625,0 11.25,-5.625 0,-5.625 -5.625,-5.625 -5.625,-11.25 0,-5.625 11.25,-5.625 11.25,-5.625 16.875,-84.375 16.875,-163.125 16.875,-247.5 0,-5.625 -5.625,-5.625 -5.625,-5.625 l 0,-16.875 c 0,-5.625 -5.625,-5.625 -11.25,-5.625 0,-5.625 0,-5.625 -5.625,-5.625 -5.625,0 -5.625,0 -5.625,-5.625 l 0,-61.875 c 0,-5.625 0,-5.625 5.625,-5.625 l 16.875,0 c 5.625,0 5.625,0 5.625,5.625 l 0,41.106 c 0,3.894 0,3.894 5.625,3.894 5.625,0 5.625,0 5.625,-5.4684 l 0,-39.5316 c 0,-5.625 0,-5.625 5.625,-5.625 l 50.625,0 c 5.625,0 5.625,0 5.625,5.625 l 0,39.375 c 0,5.625 0,5.625 5.625,5.625 l 22.5,0 c 5.625,0 5.625,0 5.625,-5.625 l 0,-39.375 c 0,-5.625 0,-5.625 5.625,-5.625 l 50.625,0 c 5.625,0 5.625,0 5.625,5.625 l 0,39.375 c 0,5.625 0,5.625 5.625,5.625 5.625,0 5.625,0 5.625,-5.625 l 0,-39.375 c 0,-5.625 0,-5.625 5.625,-5.625 l 16.875,0 c 5.625,0 5.625,0 5.625,5.625 z"
       inkscape:connector-curvature="0"
       sodipodi:nodetypes="ccccscscsccscsssssscsccscscsccccccccccccccccccccccccccccc" />
    <path
       id="path4230"
       style="fill:none;stroke:#000000;stroke-width:2.5;stroke-linecap:butt;stroke-linejoin:round;stroke-miterlimit:4;stroke-opacity:1;stroke-dasharray:none"
       d="m 1077.75,866.73478 c 0,73.125 33.75,56.25 33.75,95.625 0,16.875 -22.5,28.125 -22.5,28.125 0,0 33.75,11.25002 33.75,16.87502 l 0,5.625 c 0,5.625 0,5.625 -5.625,5.625 l -348.75,0 c -5.625,0 -5.625,0 -5.625,-5.625 l 0,-5.625 c 0,-5.625 33.74999,-16.87502 33.74999,-16.87502 0,0 -22.49999,-11.25 -22.49999,-28.125 0,-39.375 33.74999,-22.5 33.74999,-95.625 11.25,0 28.12501,-11.25 28.12501,-11.25 0,0 -39.37501,-33.75 -39.37501,-90 0,-67.5 95.62501,-146.25 118.125,-157.5 -5.625,-16.875 -56.24999,-28.125 -56.24999,-28.125 -5.625,5.625 -16.875,5.625 -22.5,5.625 -2.95802,0 -5.99893,-3.98898 -11.25,-5.625 -4.73443,-1.47505 -11.54104,-0.29104 -16.87501,-5.625 -5.625,-5.625 -5.625,-22.5 -5.625,-33.75 0,-28.125 22.50001,-50.625 39.37501,-50.625 5.625,0 33.75,1.625 39.375,1.625 5.625,0 33.74999,-12.875 39.37499,-12.875 0,0 56.25,0 67.5,-5.625 0,-11.25 11.25,-33.75 16.87501,-39.375 78.75,0 106.875,101.25 106.875,135 0,73.125 -45,140.625 -45,185.625 0,61.875 56.25,61.875 56.25,95.625 0,5.625 0,5.625 -5.625,5.625 l -67.5,0 c 0,0 16.875,11.25 28.125,11.25 z"
       inkscape:connector-curvature="0"
       sodipodi:nodetypes="cscsssssscsccsccsssssscccsssscc" />
    <path
       id="path3864-3-8"
       style="fill:none;stroke:#000000;stroke-width:2.5;stroke-linecap:butt;stroke-linejoin:round;stroke-miterlimit:4;stroke-opacity:1;stroke-dasharray:none;display:inline"
       d="m 1326.8352,519.11719 c -3.2604,0.61127 -12.9435,2.42961 -15.5317,2.91485 -5.3987,1.06041 -5.3987,1.06041 -6.6245,-4.5629 -5.9825,-31.88709 -16.6597,-88.83549 -21.0018,-111.99522 -0.957,-5.10474 -0.957,-5.10474 -7.0468,0.0143 -20.5801,18.07373 -42.5054,45.74128 -42.5054,84.37152 0,28.125 5.625,56.25 22.5,90 0,0 -11.25,0 -11.25,5.625 0,5.625 11.25,5.625 11.25,5.625 0,0 0,16.875 -5.625,22.5 0,0 -16.875,0 -16.875,11.25 0,11.25 16.875,11.25 16.875,11.25 -16.875,0 -33.75,0 -33.75,16.875 0,16.875 16.875,16.875 33.75,16.875 11.25,22.5 11.25,135 -16.875,196.875 -5.625,5.625 -16.875,5.625 -16.875,5.625 0,50.62504 -73.125,61.87504 -73.125,95.62504 0,16.875 28.125,28.125 28.125,28.125 0,0 -33.75,5.62502 -33.75,11.25002 l 0,5.625 c 0,5.625 0,5.625 5.625,5.625 l 348.75,0 c 5.625,0 5.625,0 5.625,-5.625 l 0,-5.625 c 0,-5.625 -33.75,-11.25002 -33.75,-11.25002 0,0 28.125,-11.25 28.125,-28.125 0,-33.75 -73.125,-45 -73.125,-95.62504 0,0 -11.25,0 -16.875,-5.625 C 1374.75,804.85973 1374.75,692.35973 1386,669.85973 c 16.875,0 33.75,0 33.75,-16.875 0,-16.875 -16.875,-16.875 -33.75,-16.875 0,0 16.875,0 16.875,-11.25 0,-11.25 -16.875,-11.25 -16.875,-11.25 -5.625,-5.625 -5.625,-22.5 -5.625,-22.5 0,0 11.25,0 11.25,-5.625 0,-5.625 -11.25,-5.625 -11.25,-5.625 16.875,-33.75 22.5,-61.875 22.5,-90 0,-61.875 -56.25,-95.625 -73.125,-106.875 16.875,-22.5 5.625,-39.375 -11.25,-39.375 -16.875,0 -28.125,16.875 -11.25,39.375 2.6962,14.38133 18.3437,97.84217 24.3007,129.61581 0.9347,5.42192 0.9347,5.42192 -4.7154,6.51665 z"
       inkscape:connector-curvature="0"
       sodipodi:nodetypes="cccccscsccscscccscsssssscscccscsccscscsccc" />
    <path
       id="path4043-5"
       style="fill:none;stroke:#000000;stroke-width:2.5;stroke-linecap:butt;stroke-linejoin:round;stroke-miterlimit:4;stroke-opacity:1;stroke-dasharray:none;display:inline"
       d="m 1913.6251,1018.6098 c 5.625,0 5.625,0 5.625,-5.625 l 0,-16.87502 c 0,-5.625 -33.75,-11.25 -33.75,-11.25 0,0 28.125,-11.25 28.125,-33.75 0,-50.625 -78.75,-45 -78.75,-118.12505 -11.25,0 -22.5,-5.625 -22.5,-5.625 -28.1251,-39.375 -45.0001,-225 -28.1251,-281.25 22.5001,0 39.3751,0 39.3751,-16.875 0,-16.875 -16.875,-16.875 -39.3751,-16.875 0,0 16.8751,0 16.8751,-16.875 0,-16.875 -16.8751,-16.875 -16.8751,-16.875 -5.625,-5.625 -5.625,-22.5 -5.625,-22.5 0,0 16.875,-5.625 16.875,-11.25 0,-5.625 -16.875,-5.625 -16.875,-5.625 0,-61.875 45.0001,-95.625 45.0001,-106.875 0,-11.25 -4.625,-16.875 -5.625,-16.875 -3.25,0 -5.375,8 -11.25,11.25 0,-6.75116 -2.25,-11.25 -4,-11.25 -3.1931,0 -10.5999,9.13314 -18.5001,11.25 -20.125,-18.125 -37.875,-21.375 -50.625,-22.5 11.25,-22.5 16.875,-50.625 -16.875,-50.625 -33.75,0 -28.125,28.125 -16.875,50.625 -12.75,1.125 -30.5,4.375 -50.625,22.5 -7.9002,-2.11686 -15.3069,-11.25 -18.5,-11.25 -1.75,0 -4,4.49884 -4,11.25 -5.875,-3.25 -8,-11.25 -11.25,-11.25 -1,0 -5.625,5.625 -5.625,16.875 0,11.25 45,45 45,106.875 0,0 -16.875,0 -16.875,5.625 0,5.625 16.875,11.25 16.875,11.25 0,0 0,16.875 -5.625,22.5 0,0 -16.875,0 -16.875,16.875 0,16.875 16.875,16.875 16.875,16.875 -22.5,0 -39.375,0 -39.375,16.875 0,16.875 16.875,16.875 39.375,16.875 16.875,56.25 0,241.875 -28.125,281.25 0,0 -11.25,5.625 -22.5,5.625 0,73.12505 -78.75,67.50005 -78.75,118.12505 0,22.5 28.125,33.75 28.125,33.75 0,0 -33.75,5.625 -33.75,11.25 l 0,16.87502 c 0,5.625 0,5.625 5.625,5.625 z"
       inkscape:connector-curvature="0"
       sodipodi:nodetypes="csscscccscsccscsscscczccscsscsccscscccscsscc" />
    <path
       id="path4232-0-4"
       style="fill:none;stroke:#000000;stroke-width:2.5;stroke-linecap:butt;stroke-linejoin:round;stroke-miterlimit:4;stroke-opacity:1;stroke-dasharray:none;display:inline"
       d="m 2193.7501,180.48433 c 0,0 6.3313,1.38745 6.5619,0.004 0,0 4.6881,-16.8788 4.6881,-28.1288 0,-11.25 -4.6881,-28.1288 -4.6881,-28.1288 -0.2306,-1.38345 -6.5619,0.004 -6.5619,0.004 0,0 5.625,-4.21736 5.625,-5.625 0,-5.625 -28.125,-5.625 -28.125,-5.625 5.625,-5.625 5.625,-16.875 -5.625,-16.875 -11.25,0 -11.25,11.25 -5.625,16.875 0,0 -28.125,0 -28.125,5.625 0,1.40764 5.625,5.625 5.625,5.625 0,0 -6.3313,-1.38745 -6.5619,-0.004 0,0 -4.6881,16.8788 -4.6881,28.1288 0,11.25 4.6881,28.1288 4.6881,28.1288 0.2306,1.38345 6.5619,-0.004 6.5619,-0.004 0,0 -5.625,4.21736 -5.625,5.6251 0,5.6251 16.875,5.6251 16.875,5.6251 -5.625,5.625 -11.25,11.25 -5.625,28.125 -16.875,0 -90,16.875 -90,33.75 0,73.125 39.375,112.5 39.375,140.625 0,0 -16.875,0 -16.875,5.625 0,5.625 16.875,11.25 16.875,11.25 0,11.25 -5.625,28.125 -5.625,28.125 0,0 -16.875,0 -16.875,11.25 0,11.25 22.5,11.25 22.5,11.25 -16.875,0 -33.75,0 -33.75,16.875 0,16.875 16.875,16.875 33.75,16.875 33.75,73.125 -5.625,281.25 -33.75,331.875 0,0 -16.875,11.25 -28.125,11.25 0,73.12505 -78.75,56.24995 -78.75,112.50005 0,22.5 28.125,33.75 28.125,33.75 0,0 -45,5.625 -45,11.25 l 0,16.87502 c 0,5.625 0,5.625 5.625,5.625 l 450,2e-4 c 5.625,0 5.625,0 5.625,-5.625 l 0,-16.87502 c 0,-5.625 -45,-11.25 -45,-11.25 0,0 28.125,-11.25 28.125,-33.75 0,-56.25 -78.75,-39.375 -78.75,-112.50005 -11.25,0 -28.125,-11.25 -28.125,-11.25 -28.125,-50.625 -67.5,-258.75 -33.75,-331.875 16.875,0 33.75,0 33.75,-16.875 0,-16.875 -16.875,-16.875 -33.75,-16.875 0,0 22.5,0 22.5,-11.25 0,-11.25 -16.875,-11.25 -16.875,-11.25 0,0 -5.625,-16.875 -5.625,-28.125 0,0 16.875,-5.625 16.875,-11.25 0,-5.625 -16.875,-5.625 -16.875,-5.625 0,-28.125 39.375,-67.5 39.375,-140.625 0,-16.875 -73.125,-33.75 -90,-33.75 5.625,-16.875 0,-22.5 -5.625,-28.125 0,0 16.875,0 16.875,-5.6252 0,-1.40784 -5.625,-5.6252 -5.625,-5.6252 z"
       inkscape:connector-curvature="0"
       sodipodi:nodetypes="cczccccscccczcccccscsccscscccscsssssscscccscsccscscccc" />
  </g>
</svg>
